<?xml version="1.0" encoding="UTF-8" standalone="no"?>
<svg
   xmlns:dc="http://purl.org/dc/elements/1.1/"
   xmlns:cc="http://creativecommons.org/ns#"
   xmlns:rdf="http://www.w3.org/1999/02/22-rdf-syntax-ns#"
   xmlns:svg="http://www.w3.org/2000/svg"
   xmlns="http://www.w3.org/2000/svg"
   xmlns:sodipodi="http://sodipodi.sourceforge.net/DTD/sodipodi-0.dtd"
   xmlns:inkscape="http://www.inkscape.org/namespaces/inkscape"
   version="1.1"
   width="595.27557"
   height="841.88977"
   id="svg122"
   viewBox="0 0 595.27557 841.88977"
   sodipodi:docname="i0p8s8w8uxmb35.cdr">
  <metadata
     id="metadata128">
    <rdf:RDF>
      <cc:Work
         rdf:about="">
        <dc:format>image/svg+xml</dc:format>
        <dc:type
           rdf:resource="http://purl.org/dc/dcmitype/StillImage" />
      </cc:Work>
    </rdf:RDF>
  </metadata>
  <defs
     id="defs126" />
  <sodipodi:namedview
     pagecolor="#ffffff"
     bordercolor="#666666"
     borderopacity="1"
     objecttolerance="10"
     gridtolerance="10"
     guidetolerance="10"
     inkscape:pageopacity="0"
     inkscape:pageshadow="2"
     inkscape:window-width="640"
     inkscape:window-height="480"
     id="namedview124" />
  <path
     d="M -135.936,-13.8572 V 789.0307 H 666.9519 V -13.8572 Z"
     style="fill:none;stroke:#ffffff;stroke-width:0.216;stroke-linecap:butt;stroke-linejoin:miter;stroke-dasharray:none"
     id="path2" />
  <path
     d="m 666.9519,174.3559 -29.4724,-0.2916 v 2.2118 h -6.0438 l -0.2086,-8.3049 -6.7104,-0.0417 -0.0834,8.3466 -3.5847,-0.0416 v -1.9199 l -18.6312,0.1252 -0.2501,-35.0149 -23.2163,0.0419 -1.7507,1.7527 0.0417,30.4242 h -3.8764 l -6.7104,2.9214 -0.2503,4.716 -5.5435,0.2503 -0.2083,-4.0898 -1.0837,-1.4607 -4.46,-0.2506 -0.125,2.2955 -2.5841,-0.0836 -1.1253,-89.6029 -6.1271,-10.1415 -48.2667,0.5009 0.5001,48.2445 -3.7928,0.1253 v 3.1301 h -6.7524 l 0.125,-40.9828 -1.9174,-4.4237 -19.4232,2.0865 -0.2917,6.0931 -16.1722,2.0869 -0.9587,-42.2768 -4.9184,-1.4607 -0.375,-16.3179 h -17.0893 l -0.125,17.1111 -3.7097,0.3336 -0.5,42.9863 -16.0472,-2.6294 -16.6723,3.7561 -0.3336,-51.4998 -6.1271,-6.5523 -20.9653,0.2086 -1.042,106.5473 -11.0455,0.1667 0.0417,4.8413 -3.293,0.0833 v 5.8847 l -12.3376,-3.1303 0.0417,-8.5552 -7.0857,-0.5009 0.1252,-54.9221 -3.668,-4.4654 -1.292,0.0416 -0.0417,2.5042 -6.5024,-0.1253 0.1667,-4.716 -5.7101,-2.2952 -40.1389,1.0014 0.0417,82.3414 -6.0021,-0.0417 v 0.9598 l -2.1257,0.0834 -0.0417,-41.9426 -7.9194,-2.2955 -15.9636,0.2087 -0.1667,18.0708 h -11.1705 l -0.2503,-19.6149 -0.6667,-0.5009 -0.1666,-11.7688 -0.7504,-0.2506 -0.25,-11.6856 -0.8337,-0.2503 -0.1666,-10.1831 -1.584,-2.7545 -1.3337,-8.5972 -3.9181,-2.0032 -16.7559,-0.0833 -1.8337,1.3354 -3.168,5.7594 -0.3333,3.5056 -1.8341,1.5024 -2.4173,65.5225 -1.7507,0.3336 v 1.6697 l -8.7528,0.0833 -0.167,-54.7552 -23.091,-6.0097 -0.3337,-12.0192 -1.5003,-1.1687 -0.2501,-20.2827 -1.7506,-0.5843 -0.1667,-5.9261 -10.9205,-1.6696 -23.0913,0.8348 -0.25,6.5106 -2.334,0.0834 0.0833,20.7836 -2.1674,-0.0836 -0.0833,30.0486 -2.9177,0.0834 0.0833,16.8607 -3.418,0.0834 v -1.3354 l -6.9188,-0.167 0.0833,13.8558 -2.1673,2.9213 -1.6674,0.0834 -1.9173,-2.4205 -5.0018,0.1669 -0.0833,4.0899 -2.4174,1.8363 0.4167,31.7179 -3.668,0.167 0.417,-90.396 -6.1688,-5.3419 -14.4215,-0.3339 -0.667,-0.7512 -20.4237,0.3339 -0.25,1.4188 -7.9194,0.0836 -8.8364,3.5056 -0.9171,73.5355 -14.5882,-0.4175 -0.1667,3.0883 H 6.5137 l 0.3334,-43.8208 -2.6677,-0.8345 -0.0833,-4.8413 -2.6674,-1.0851 -24.175,1.9199 v 3.9229 l -4.0014,-0.167 -0.667,63.1854 -10.5868,0.0836 v -2.9213 l -7.8361,-2.1702 v 4.5907 l -3.0844,0.0833 0.0833,-72.7841 -9.6698,-4.0064 -21.7576,3.9231 -1.3337,56.0069 -12.9212,2.3372 -0.1667,16.5265 -41.2483,0.6668 v 101.3241 l 802.8879,-0.7433 z"
     style="fill:#000200;fill-rule:evenodd"
     id="path4" />
  <path
     d="m -81.5998,157.9966 22.1737,0.7512 0.9176,-60.6812 -21.7576,3.9231 z"
     style="fill:#c5c7c8;fill-rule:evenodd;stroke:#c5c7c8;stroke-width:0.216;stroke-linecap:butt;stroke-linejoin:miter;stroke-dasharray:none"
     id="path6" />
  <path
     d="m -27.4147,175.191 17.1726,-0.0833 0.667,-63.6027 1.9173,0.0834 -0.2503,63.5193 H 0.595 l 0.8337,-68.7779 -24.175,1.9199 v 3.9229 l -4.0014,-0.167 z"
     style="fill:#c5c7c8;fill-rule:evenodd;stroke:#c5c7c8;stroke-width:0.216;stroke-linecap:butt;stroke-linejoin:miter;stroke-dasharray:none"
     id="path8" />
  <path
     d="m 24.1027,190.9667 0.3336,-36.726 0.9171,-73.5355 48.0996,-1.419 -0.8336,94.6528 -6.5021,-0.167 v -3.3386 l -28.8434,0.1669 v 3.8395 l -6.0021,0.6679 0.1667,16.0259 z"
     style="fill:#c5c7c8;fill-rule:evenodd;stroke:#c5c7c8;stroke-width:0.216;stroke-linecap:butt;stroke-linejoin:miter;stroke-dasharray:none"
     id="path10" />
  <path
     d="m 147.3953,128.2402 -11.7541,-1.2101 v -4.0065 h -8.0028 l -0.667,-2.1702 -16.5903,0.0822 -0.0819,-16.609 2.9177,-0.0834 0.0833,-30.0486 2.1674,0.0836 -0.0833,-20.7836 2.334,-0.0834 0.25,-6.5106 23.0913,-0.8348 0.0834,6.3437 2.1676,0.1669 -0.3336,21.3679 2.501,0.1669 -0.1667,30.2154 1.8337,-0.167 z"
     style="fill:#c5c7c8;fill-rule:evenodd;stroke:#c5c7c8;stroke-width:0.216;stroke-linecap:butt;stroke-linejoin:miter;stroke-dasharray:none"
     id="path12" />
  <path
     d="m 157.5995,140.8737 -0.1174,-35.3784 -1.4057,-0.108 -0.0949,-17.6709 6.1687,6.0934 v 21.5348 l -2.334,0.1669 -0.1667,25.875 z"
     style="fill:#c5c7c8;fill-rule:evenodd;stroke:#c5c7c8;stroke-width:0.216;stroke-linecap:butt;stroke-linejoin:miter;stroke-dasharray:none"
     id="path14" />
  <path
     d="m 192.4943,170.2664 -2.7513,-23.8717 2.4173,-65.5225 1.8341,-1.5024 14.0051,-1.0851 1.834,1.3354 -0.1667,10.851 h -1.834 l 0.3334,12.5201 h -2.0007 l -0.1667,11.8525 h -1.5007 l -0.4028,55.4213 z"
     style="fill:#c5c7c8;fill-rule:evenodd;stroke:#c5c7c8;stroke-width:0.216;stroke-linecap:butt;stroke-linejoin:miter;stroke-dasharray:none"
     id="path16" />
  <path
     d="m 237.1759,136.4618 h 16.0053 l 0.125,-18.2795 -15.9636,0.2087 z"
     style="fill:#c5c7c8;fill-rule:evenodd;stroke:#c5c7c8;stroke-width:0.216;stroke-linecap:butt;stroke-linejoin:miter;stroke-dasharray:none"
     id="path18" />
  <path
     d="m 272.5217,101.8227 -3.1501,13.1882 -0.0182,-35.9334 40.1389,-1.0014 0.0422,37.6024 5.5018,0.1667 v 63.102 l -7.6692,0.167 -0.1666,5.0079 -6.0021,0.334 -0.3336,-5.3419 -7.3358,-0.5009 v -4.5074 h -3.5011 l -0.5003,-57.7599 2.8344,0.334 -0.1667,-11.8525 -3.1677,-4.1735 z"
     style="fill:#c5c7c8;fill-rule:evenodd;stroke:#c5c7c8;stroke-width:0.216;stroke-linecap:butt;stroke-linejoin:miter;stroke-dasharray:none"
     id="path20" />
  <path
     d="m 343.2954,154.8249 v 25.0405 h 3.6681 v -25.0405 z"
     style="fill:#c5c7c8;fill-rule:evenodd;stroke:#c5c7c8;stroke-width:0.216;stroke-linecap:butt;stroke-linejoin:miter;stroke-dasharray:none"
     id="path22" />
  <path
     d="m 348.1305,154.8249 v 30.132 h 3.5011 v -30.132 z"
     style="fill:#c5c7c8;fill-rule:evenodd;stroke:#c5c7c8;stroke-width:0.216;stroke-linecap:butt;stroke-linejoin:miter;stroke-dasharray:none"
     id="path24" />
  <path
     d="M 352.8819,154.7413 V 186.042 H 356.55 V 154.7413 Z"
     style="fill:#c5c7c8;fill-rule:evenodd;stroke:#c5c7c8;stroke-width:0.216;stroke-linecap:butt;stroke-linejoin:miter;stroke-dasharray:none"
     id="path26" />
  <path
     d="m 382.1003,36.5088 1.2929,136.2617 h -6.0021 l -0.5,-9.0144 -8.6698,-0.334 v 4.3405 h -3.3344 l -0.1666,-14.8576 h -2.6677 l 0.1666,-4.3401 -2.0006,-0.3339 -0.1256,-4.9663 1.042,-106.5473 z"
     style="fill:#c5c7c8;fill-rule:evenodd;stroke:#c5c7c8;stroke-width:0.216;stroke-linecap:butt;stroke-linejoin:miter;stroke-dasharray:none"
     id="path28" />
  <path
     d="m 388.2283,108.1879 h 10.3368 l -0.3334,72.6174 -10.3368,-0.8348 z"
     style="fill:#c5c7c8;fill-rule:evenodd;stroke:#c5c7c8;stroke-width:0.216;stroke-linecap:butt;stroke-linejoin:miter;stroke-dasharray:none"
     id="path30" />
  <path
     d="m 420.7397,132.372 0.5408,-38.9378 0.5,-42.9863 3.7097,-0.3336 0.125,-17.1111 h 14.1308 l 0.3336,16.7355 5.3351,2.0032 -0.1667,44.0711 0.1667,38.3953 z"
     style="fill:#c5c7c8;fill-rule:evenodd;stroke:#c5c7c8;stroke-width:0.216;stroke-linecap:butt;stroke-linejoin:miter;stroke-dasharray:none"
     id="path32" />
  <path
     d="m 464.8371,93.8098 0.2917,-2.8381 0.2917,-6.0931 19.4232,-2.0865 -0.25,44.238 -9.4198,-0.4175 -0.417,-32.5525 z"
     style="fill:#c5c7c8;fill-rule:evenodd;stroke:#c5c7c8;stroke-width:0.216;stroke-linecap:butt;stroke-linejoin:miter;stroke-dasharray:none"
     id="path34" />
  <path
     d="m 496.7685,85.1238 16.5031,0.0051 0.6667,37.7278 8.8364,-0.167 0.1667,-37.7277 16.5058,0.5009 -0.0958,-9.207 5.5965,-0.0581 0.8348,100.0783 -21.6743,2.3372 0.3336,-29.8817 h -4.335 l -0.1667,30.2156 -33.3447,-0.6678 0.0405,-50.0808 h 6.7524 v -3.1301 l 3.7928,-0.1253 z"
     style="fill:#c5c7c8;fill-rule:evenodd;stroke:#c5c7c8;stroke-width:0.216;stroke-linecap:butt;stroke-linejoin:miter;stroke-dasharray:none"
     id="path36" />
  <path
     d="m 421.2397,142.4098 -0.3334,53.4197 2.5008,0.3339 v -3.005 h 4.5017 l 6.6687,-4.5071 -0.1666,-46.5752 z"
     style="fill:#c5c7c8;fill-rule:evenodd;stroke:#c5c7c8;stroke-width:0.216;stroke-linecap:butt;stroke-linejoin:miter;stroke-dasharray:none"
     id="path38" />
  <path
     d="m -135.936,402.2271 36.773,0.167 0.8337,-31.718 20.1736,0.3339 6.8357,4.5074 -0.1666,15.1912 23.0079,0.6675 0.1667,8.8478 25.5087,-5.008 v 5.175 l 21.3412,-0.6679 v -9.3484 l 14.5882,-0.3339 2.1674,-85.7216 20.3403,0.5842 3.668,2.2538 0.25,10.0159 16.0889,0.0837 2.0007,19.0306 -0.3337,17.8623 16.3392,13.6888 0.25,17.7786 3.9181,3.1717 1.667,-24.0387 8.9198,-2.7544 9.6701,4.4237 0.3334,3.6726 13.2545,4.6743 0.4167,-47.1597 7.8361,-3.1717 h 12.7545 l 1.417,-33.1367 h 0.917 l 1.6674,34.973 4.3347,2.5875 0.3334,43.0696 3.418,0.7512 0.0833,4.0901 3.6678,0.0833 0.5836,-21.2009 6.6688,-4.2568 0.3336,-59.0119 5.8352,-2.838 16.3389,-0.0834 4.6683,1.7527 -0.0833,57.8435 5.8354,1.0851 -0.2503,-22.8702 5.8354,-6.0934 0.0833,-3.8395 3.5014,-4.841 4.1681,-0.167 2.2507,-4.7576 9.3364,-0.167 1.4174,4.841 h 4.0847 l 3.251,5.0083 0.1667,3.7559 6.1688,5.5091 v 75.3715 l 4.585,0.0837 -0.1669,-9.5157 2.4176,-4.5907 -0.1666,-31.4674 4.168,-4.0898 h 23.258 l 0.1667,21.9521 9.5031,0.9181 v 4.674 l 5.5854,0.2506 0.0833,6.6773 h 4.6681 v -39.2298 l 9.5035,-7.0115 -0.1667,-24.5395 16.0886,-5.0916 12.5045,3.6726 1.2503,82.2997 4.0014,-0.167 -0.25,-22.0357 1.2504,-0.0833 -0.0834,-13.9394 h 1.3337 l 0.1667,-10.6838 10.0035,-0.1669 -0.0834,3.3386 2.0841,0.167 0.667,46.9924 3.751,0.334 -0.8333,-50.5817 6.1687,-2.8378 0.0833,-22.7032 21.007,-4.7577 5.9188,0.5006 3.7514,2.5875 1.0003,69.7793 5.8354,0.3339 -0.0833,3.3387 3.251,-0.0834 -0.0833,-4.3404 2.4174,-1.5024 h 6.5857 l 2.4174,1.0851 0.1667,4.5908 8.0027,0.0836 3.9181,-5.5925 7.6691,-0.2503 -0.25,-65.1053 6.7524,-9.9326 3.1677,-0.0836 7.5025,9.3487 0.917,18.4464 h 12.0875 l 7.3358,3.0881 0.4169,32.6361 6.8355,2.0032 0.167,-5.6758 20.3402,-0.0836 0.0834,-1.5857 15.6719,-2.0869 11.6708,1.1688 -0.2503,2.5874 8.1694,-2.4205 12.7545,2.0866 0.0834,19.5316 h 11.2538 l 0.1667,1.5023 9.8368,0.5843 7.1691,6.4272 9.7534,1.3354 7.6691,-1.5023 8.2528,-1.5027 5.2518,1.1687 6.5857,-1.1687 5.3351,1.2521 3.2511,2.5041 h 6.7524 l 6.7524,-3.9229 2.8343,1.4188 6.9188,-0.2503 4.3351,-0.8348 4.7514,1.0851 4.335,2.3372 4.8348,1.0017 4.335,-0.6678 4.3348,-0.2503 6.7711,1.4187 v 91.0369 H -135.936 Z"
     style="fill:#000200;fill-rule:evenodd"
     id="path40" />
  <path
     d="m -78.1557,371.01 -0.9998,32.1829 -20.0075,-0.7988 0.8337,-31.718 z"
     style="fill:#c5c7c8;fill-rule:evenodd;stroke:#c5c7c8;stroke-width:0.216;stroke-linecap:butt;stroke-linejoin:miter;stroke-dasharray:none"
     id="path42" />
  <path
     d="m 7.5413,405.2798 0.0833,-9.6823 h 7.6694 l 0.0834,-2.6711 h 22.591 l -0.1667,2.7544 7.8358,-0.0833 0.3334,17.3611 -18.1727,0.1669 v -7.0112 l -20.2569,-0.167 z"
     style="fill:#c5c7c8;fill-rule:evenodd;stroke:#c5c7c8;stroke-width:0.216;stroke-linecap:butt;stroke-linejoin:miter;stroke-dasharray:none"
     id="path44" />
  <path
     d="m 25.4636,304.6113 -0.25,32.976 -0.8337,17.3614 -4.3347,0.1669 -4.335,22.8702 -2.2777,-0.0575 2.1141,-73.6019 z"
     style="fill:#c5c7c8;fill-rule:evenodd;stroke:#c5c7c8;stroke-width:0.216;stroke-linecap:butt;stroke-linejoin:miter;stroke-dasharray:none"
     id="path46" />
  <path
     d="m 57.3914,359.4557 7.3357,7.1785 -0.1666,38.228 -4.5017,-0.3339 -0.1667,-6.1764 -3.5011,-0.167 z"
     style="fill:#c5c7c8;fill-rule:evenodd;stroke:#c5c7c8;stroke-width:0.216;stroke-linecap:butt;stroke-linejoin:miter;stroke-dasharray:none"
     id="path48" />
  <path
     d="m 88.4018,361.9956 4.6684,3.9708 V 405.864 H 79.5654 l -0.125,2.9214 -1.5421,-0.0836 -0.0833,-19.9131 1.667,-24.0387 z"
     style="fill:#c5c7c8;fill-rule:evenodd;stroke:#c5c7c8;stroke-width:0.216;stroke-linecap:butt;stroke-linejoin:miter;stroke-dasharray:none"
     id="path50" />
  <path
     d="m 119.2343,410.4899 0.0113,-2.6227 h -4.5014 l -0.3334,-16.5265 h -3.1677 l 0.4167,-16.5745 0.4167,-47.1597 25.217,0.3818 0.2917,82.0491 z"
     style="fill:#c5c7c8;fill-rule:evenodd;stroke:#c5c7c8;stroke-width:0.216;stroke-linecap:butt;stroke-linejoin:miter;stroke-dasharray:none"
     id="path52" />
  <path
     d="m 166.9303,289.5197 0.165,113.1723 h -12.0039 l 0.6667,-51.2969 0.3336,-59.0119 5.8352,-2.838 z"
     style="fill:#c5c7c8;fill-rule:evenodd;stroke:#c5c7c8;stroke-width:0.216;stroke-linecap:butt;stroke-linejoin:miter;stroke-dasharray:none"
     id="path54" />
  <path
     d="m 188.6029,403.5268 0.0833,-53.3837 -0.2503,-22.8702 5.8354,-6.0934 -0.3333,82.5143 z"
     style="fill:#c5c7c8;fill-rule:evenodd;stroke:#c5c7c8;stroke-width:0.216;stroke-linecap:butt;stroke-linejoin:miter;stroke-dasharray:none"
     id="path56" />
  <path
     d="m 233.4506,413.2925 -0.1658,-11.3156 -0.1669,-9.5157 2.4176,-4.5907 -0.1666,-31.4674 4.168,-4.0898 4.5006,3.0529 -0.3334,52.668 z"
     style="fill:#c5c7c8;fill-rule:evenodd;stroke:#c5c7c8;stroke-width:0.216;stroke-linecap:butt;stroke-linejoin:miter;stroke-dasharray:none"
     id="path58" />
  <path
     d="m 282.6349,410.0374 v -23.252 l 0.1666,-39.2298 9.5035,-7.0115 -0.1667,-24.5395 16.0886,-5.0916 0.917,100.6268 h -15.3385 v -1.3357 z"
     style="fill:#c5c7c8;fill-rule:evenodd;stroke:#c5c7c8;stroke-width:0.216;stroke-linecap:butt;stroke-linejoin:miter;stroke-dasharray:none"
     id="path60" />
  <path
     d="m 323.2321,400.7724 -0.1641,-3.9322 2.9151,-0.1219 -0.25,-22.0357 1.2504,-0.0833 -0.0834,-13.9394 h 1.3337 l 0.1667,-10.6838 3.2511,4.4714 v 6.0934 l -2.0841,0.0833 0.167,36.4756 h -2.501 l 0.1667,3.9229 z"
     style="fill:#c5c7c8;fill-rule:evenodd;stroke:#c5c7c8;stroke-width:0.216;stroke-linecap:butt;stroke-linejoin:miter;stroke-dasharray:none"
     id="path62" />
  <path
     d="m 350.1581,404.0277 v -56.806 l 0.0833,-22.7032 21.007,-4.7577 0.917,82.5976 h -18.6729 l 0.1667,2.0032 z"
     style="fill:#c5c7c8;fill-rule:evenodd;stroke:#c5c7c8;stroke-width:0.216;stroke-linecap:butt;stroke-linejoin:miter;stroke-dasharray:none"
     id="path64" />
  <path
     d="m 422.1828,395.0133 -0.167,-4.722 -0.25,-65.1053 6.7524,-9.9326 2.1674,9.313 0.3333,19.1976 3.8347,-0.6678 1.6674,58.7613 -2.6677,-0.1669 -0.1667,-6.5107 z"
     style="fill:#c5c7c8;fill-rule:evenodd;stroke:#c5c7c8;stroke-width:0.216;stroke-linecap:butt;stroke-linejoin:miter;stroke-dasharray:none"
     id="path66" />
  <path
     d="m 466.9458,391.9249 -0.1647,-11.2326 0.167,-5.6758 18.5025,-0.0759 0.001,18.9039 -12.9209,0.0837 v -2.2536 z"
     style="fill:#c5c7c8;fill-rule:evenodd;stroke:#c5c7c8;stroke-width:0.216;stroke-linecap:butt;stroke-linejoin:miter;stroke-dasharray:none"
     id="path68" />
  <path
     d="m 487.6951,411.6643 -0.4068,-36.7314 0.0834,-1.5857 15.6719,-2.0869 0.5811,39.4447 z"
     style="fill:#c5c7c8;fill-rule:evenodd;stroke:#c5c7c8;stroke-width:0.216;stroke-linecap:butt;stroke-linejoin:miter;stroke-dasharray:none"
     id="path70" />
  <path
     d="m 514.6288,406.8655 -0.1647,-31.849 8.1694,-2.4205 0.9148,34.2695 z"
     style="fill:#c5c7c8;fill-rule:evenodd;stroke:#c5c7c8;stroke-width:0.216;stroke-linecap:butt;stroke-linejoin:miter;stroke-dasharray:none"
     id="path72" />
  <path
     d="m -135.936,634.8317 12.9733,5.1749 h 11.5872 l 0.5,-17.6117 15.7556,-0.3339 v -4.1734 l 34.5951,-0.0834 0.0834,5.3419 8.8364,0.167 v 3.2553 h 20.0066 l -0.0833,1.9196 18.1729,0.167 0.8337,-75.4552 18.8399,0.0833 0.0833,-1.5857 11.5872,-0.0836 0.0833,-6.5103 h 1.6674 v 6.5103 l 2.584,0.0836 0.0834,5.4253 5.4187,0.0836 7.0024,3.0883 -0.3336,63.7697 16.1722,0.0833 v -2.6708 h 4.6684 l 0.25,3.1717 10.8371,-0.3339 -0.1666,-3.8396 h 3.501 v -4.7576 h 3.3344 l 0.2503,-5.6759 17.5893,0.0837 0.3333,-24.039 5.9188,-1.5859 0.1666,-2.1703 5.5854,-0.5842 h 7.0025 v -5.5922 l 11.2538,0.0834 v -4.5907 h 19.4233 l 0.1666,9.7656 4.5848,-0.1667 2.251,-8.9311 4.2514,-0.3339 0.0833,-34.8897 16.3389,-0.6678 14.0049,1.6693 0.1667,13.6888 18.0062,2.3372 7.7525,-5.2586 12.7544,7.1785 v 7.2615 l 3.0011,0.3339 v 4.7577 h 13.4212 l 0.0833,6.5106 2.501,0.1669 -0.1669,28.7964 h 10.5038 l -0.1667,-33.8046 30.5104,-0.6676 1.9174,-7.0115 2.6674,-0.0833 -0.0834,1.5857 9.0031,-0.0833 -0.0833,-1.6694 1.834,-0.0836 3.0011,6.8445 h 2.834 v 9.5987 l 2.0841,0.167 0.2503,36.3923 h 2.9177 l -0.2503,-39.4807 h 3.5013 l -0.0833,-5.5088 h 12.6708 l 0.0834,4.5074 4.3347,2.2535 0.0836,24.7068 5.9185,-0.0837 0.917,2.5875 0.0833,5.9264 2.3344,0.167 v 5.0913 l 8.6695,0.8348 0.25,14.273 22.8413,-0.3339 -0.2501,-42.7357 11.8372,-0.167 v -21.952 l 9.0865,-1.1685 0.5003,-2.4205 4.5848,-0.0836 v -2.2536 h 6.7524 l 0.0833,2.0033 2.1674,0.0833 0.7503,2.8381 h 2.3341 v 2.2535 l 5.2517,0.0836 -0.0833,-9.8492 h 11.8375 l 0.0833,8.5972 8.5861,2.5041 v 7.0112 l 9.2535,1.7527 v -6.8443 h 30.0101 l -0.0834,1.5024 8.0028,0.0836 0.4167,32.4689 33.0114,-0.5842 -0.0833,1.252 h 2.4174 v 4.7577 h 1.584 l 0.1667,3.9232 h 2.084 l 0.0833,21.8684 18.8399,-0.167 -0.5836,-23.0371 3.3344,0.0836 0.0833,-2.0869 h -1.834 l -0.1667,-5.4252 5.0017,-0.167 v -5.8427 l 0.667,0.0833 0.1667,5.7594 h 6.3354 v -5.9264 l 0.8337,0.0837 v 5.8427 l 3.2511,0.167 0.1666,6.0094 h -2.334 v 1.5027 h 4.4184 l 0.0833,26.7097 h 2.084 l -0.0833,-31.718 0.75,-0.7511 0.0834,-4.9247 45.0989,-0.1669 0.1667,5.5088 0.7503,0.5845 0.4167,21.1173 h 3.5014 l -0.0837,3.005 6.5024,0.0833 v 5.6758 l 12.4209,-1.0014 6.0021,1.7526 10.6704,0.3339 0.4167,2.0869 h 6.6688 v -9.265 l 14.7331,0.1669 v 111.3452 l -802.8879,-0.167 z"
     style="fill:#000200;fill-rule:evenodd"
     id="path74" />
  <path
     d="m -96.5378,627.069 v 28.713 h 4.335 v -28.713 z"
     style="fill:#c5c7c8;fill-rule:evenodd;stroke:#c5c7c8;stroke-width:0.216;stroke-linecap:butt;stroke-linejoin:miter;stroke-dasharray:none"
     id="path76" />
  <path
     d="m -90.4516,627.069 v 28.7966 h 10.5869 V 627.069 Z"
     style="fill:#c5c7c8;fill-rule:evenodd;stroke:#c5c7c8;stroke-width:0.216;stroke-linecap:butt;stroke-linejoin:miter;stroke-dasharray:none"
     id="path78" />
  <path
     d="m -77.7807,626.9856 v 28.88 h 10.2535 v -28.88 z"
     style="fill:#c5c7c8;fill-rule:evenodd;stroke:#c5c7c8;stroke-width:0.216;stroke-linecap:butt;stroke-linejoin:miter;stroke-dasharray:none"
     id="path80" />
  <path
     d="m -65.5265,626.9856 v 28.88 h 7.4191 v -28.88 z"
     style="fill:#c5c7c8;fill-rule:evenodd;stroke:#c5c7c8;stroke-width:0.216;stroke-linecap:butt;stroke-linejoin:miter;stroke-dasharray:none"
     id="path82" />
  <path
     d="m -32.1817,637.4191 3.7513,18.9474 h 11.4205 l -3.7513,-18.864 z"
     style="fill:#c5c7c8;fill-rule:evenodd;stroke:#c5c7c8;stroke-width:0.216;stroke-linecap:butt;stroke-linejoin:miter;stroke-dasharray:none"
     id="path84" />
  <path
     d="m -14.1755,640.6744 0.1106,-12.0248 0.5561,0.005 0.8337,-75.4552 3.0849,0.0136 0.1661,6.1631 15.4219,-0.167 0.167,-5.9264 0.0833,-1.5857 3.5856,-0.026 -0.5845,89.7542 z"
     style="fill:#c5c7c8;fill-rule:evenodd;stroke:#c5c7c8;stroke-width:0.216;stroke-linecap:butt;stroke-linejoin:miter;stroke-dasharray:none"
     id="path86" />
  <path
     d="m 12.1669,652.6103 0.5833,-25.6247 h 15.0886 l 0.25,23.0372 -5.5018,-0.167 -2.2507,0.5843 -3.7514,0.9181 -1.6673,0.7512 z"
     style="fill:#c5c7c8;fill-rule:evenodd;stroke:#c5c7c8;stroke-width:0.216;stroke-linecap:butt;stroke-linejoin:miter;stroke-dasharray:none"
     id="path88" />
  <path
     d="m 33.2572,649.5219 -0.1667,-21.6181 20.0903,0.1669 0.1667,25.9586 -3.1678,0.167 -4.418,-1.0852 -4.7517,-2.0868 -3.8348,-1.2518 -2.584,-0.167 z"
     style="fill:#c5c7c8;fill-rule:evenodd;stroke:#c5c7c8;stroke-width:0.216;stroke-linecap:butt;stroke-linejoin:miter;stroke-dasharray:none"
     id="path90" />
  <path
     d="m 56.0985,628.1541 v 25.9585 h 16.0889 v -25.9585 z"
     style="fill:#c5c7c8;fill-rule:evenodd;stroke:#c5c7c8;stroke-width:0.216;stroke-linecap:butt;stroke-linejoin:miter;stroke-dasharray:none"
     id="path92" />
  <path
     d="m 69.603,620.475 h 4.5014 l 0.167,-2.5874 h 11.3372 v 3.4222 h 3.251 l 0.0533,-11.1937 -15.7252,-0.0746 -0.2503,5.6759 H 69.603 Z"
     style="fill:#c5c7c8;fill-rule:evenodd;stroke:#c5c7c8;stroke-width:0.216;stroke-linecap:butt;stroke-linejoin:miter;stroke-dasharray:none"
     id="path94" />
  <path
     d="m 91.277,629.2392 -0.5,-19.114 0.3333,-24.039 5.9188,-1.5859 6.002,-0.0834 15.5886,0.5842 0.0834,44.4887 -15.7553,-0.7515 z"
     style="fill:#c5c7c8;fill-rule:evenodd;stroke:#c5c7c8;stroke-width:0.216;stroke-linecap:butt;stroke-linejoin:miter;stroke-dasharray:none"
     id="path96" />
  <path
     d="m 168.1367,536.4227 -0.25,47.41 10.3371,0.3339 v 49.246 h -6.2521 l -0.0836,-5.1749 -1.7087,-0.0836 0.0416,-6.2601 -1.5321,0.021 0.0315,-4.6953 -18.1729,-0.1667 1.167,-45.0728 0.0833,-34.8897 z"
     style="fill:#c5c7c8;fill-rule:evenodd;stroke:#c5c7c8;stroke-width:0.216;stroke-linecap:butt;stroke-linejoin:miter;stroke-dasharray:none"
     id="path98" />
  <path
     d="m 192.0617,564.1342 v 68.2769 h 19.1733 v -68.2769 z"
     style="fill:#c5c7c8;fill-rule:evenodd;stroke:#c5c7c8;stroke-width:0.216;stroke-linecap:butt;stroke-linejoin:miter;stroke-dasharray:none"
     id="path100" />
  <path
     d="M 276.2575,577.9899 V 658.62 h 22.6746 v -80.6301 z"
     style="fill:#c5c7c8;fill-rule:evenodd;stroke:#c5c7c8;stroke-width:0.216;stroke-linecap:butt;stroke-linejoin:miter;stroke-dasharray:none"
     id="path102" />
  <path
     d="m 310.102,575.5691 10.6708,-0.4172 3.8347,2.6711 -0.5001,79.6286 -17.6728,-0.167 0.4164,-42.2348 -0.2503,-39.4807 z"
     style="fill:#c5c7c8;fill-rule:evenodd;stroke:#c5c7c8;stroke-width:0.216;stroke-linecap:butt;stroke-linejoin:miter;stroke-dasharray:none"
     id="path104" />
  <path
     d="m 386.0447,569.81 v 18.6134 h 7.9192 V 569.81 Z"
     style="fill:#c5c7c8;fill-rule:evenodd;stroke:#c5c7c8;stroke-width:0.216;stroke-linecap:butt;stroke-linejoin:miter;stroke-dasharray:none"
     id="path106" />
  <path
     d="m 393.1722,564.5098 v 4.2568 l 1.5837,0.0836 0.125,12.1861 2.209,7.1785 4.8351,0.0416 v -23.8303 z"
     style="fill:#c5c7c8;fill-rule:evenodd;stroke:#c5c7c8;stroke-width:0.216;stroke-linecap:butt;stroke-linejoin:miter;stroke-dasharray:none"
     id="path108" />
  <path
     d="m 402.967,565.1357 v 27.2942 l 2.0007,0.0833 0.1667,5.0916 2.3343,0.0836 -0.167,-28.1287 -1.8337,-0.0836 -0.2503,-4.4238 z"
     style="fill:#c5c7c8;fill-rule:evenodd;stroke:#c5c7c8;stroke-width:0.216;stroke-linecap:butt;stroke-linejoin:miter;stroke-dasharray:none"
     id="path110" />
  <path
     d="m 415.3054,647.4353 0.1669,-46.7421 1.3337,-5.6758 V 577.823 l 4.6684,-13.6888 5.3351,13.1879 0.1667,18.3631 1.3337,4.5071 0.3336,27.2106 h -2.3343 v 4.5074 l -6.1688,0.1669 0.1667,15.5251 z"
     style="fill:#c5c7c8;fill-rule:evenodd;stroke:#c5c7c8;stroke-width:0.216;stroke-linecap:butt;stroke-linejoin:miter;stroke-dasharray:none"
     id="path112" />
  <path
     d="m 438.48,629.0722 -0.5,-47.4097 4.2097,-3.5059 -0.1667,-4.9243 23.4664,0.0833 -0.1667,4.1734 -5.0018,3.3387 -0.3333,39.0631 -2.6677,1.8363 v 5.1749 l -4.6681,1.5027 -0.1669,4.1731 h -9.0032 l 0.0417,-3.4636 z"
     style="fill:#c5c7c8;fill-rule:evenodd;stroke:#c5c7c8;stroke-width:0.216;stroke-linecap:butt;stroke-linejoin:miter;stroke-dasharray:none"
     id="path114" />
  <path
     d="m 498.8333,634.5811 0.0833,-21.6182 h 1.8338 v -3.4222 l 1.7506,-0.0834 v -5.0079 h 2.0841 l -0.0213,-1.1983 7.774,-0.1374 -0.0833,1.252 h 2.4174 v 4.7577 h 1.584 l 0.1667,3.9232 h 2.084 l 0.0833,21.8684 z"
     style="fill:#c5c7c8;fill-rule:evenodd;stroke:#c5c7c8;stroke-width:0.216;stroke-linecap:butt;stroke-linejoin:miter;stroke-dasharray:none"
     id="path116" />
  <path
     d="m 536.8737,612.8014 18.3954,-0.005 v 21.7851 l -17.8393,0.1669 z"
     style="fill:#c5c7c8;fill-rule:evenodd;stroke:#c5c7c8;stroke-width:0.216;stroke-linecap:butt;stroke-linejoin:miter;stroke-dasharray:none"
     id="path118" />
  <path
     d="m 558.8538,606.7862 44.8486,0.2506 0.3334,36.3084 -24.0917,-0.2503 0.0834,1.0851 -8.0861,-0.1669 -3.9178,1.8363 v 1.7529 l -8.9198,-0.0836 -0.1667,-9.0145 z"
     style="fill:#c5c7c8;fill-rule:evenodd;stroke:#c5c7c8;stroke-width:0.216;stroke-linecap:butt;stroke-linejoin:miter;stroke-dasharray:none"
     id="path120" />
</svg>
