<svg xmlns="http://www.w3.org/2000/svg" viewBox="0 0 1497.68 247.61"><defs><style>.a,.b,.c,.d,.e,.h{fill-rule:evenodd;}.b,.g{fill:#d68b1b;}.b,.c,.d,.e,.f,.g,.h{stroke:#c6c6c6;stroke-miterlimit:22.93;stroke-width:0.22px;}.c{fill:#987d46;}.d,.f{fill:#d6a926;}.e{fill:#e8442a;}.h{fill:#f7a612;}</style></defs><polygon class="a" points="0 140.11 12.97 145.28 24.56 145.28 25.06 127.67 40.82 127.33 40.82 123.16 75.41 123.08 75.5 128.42 84.33 128.59 84.33 131.84 104.34 131.84 104.25 133.76 122.43 133.93 123.26 58.47 142.1 58.56 142.18 56.97 153.77 56.89 153.85 50.38 155.52 50.38 155.52 56.89 158.11 56.97 158.19 62.4 163.61 62.48 170.61 65.57 170.28 129.34 186.45 129.42 186.45 126.75 191.12 126.75 191.37 129.92 202.21 129.59 202.04 125.75 205.54 125.75 205.54 120.99 208.87 120.99 209.12 115.32 226.71 115.4 227.05 91.36 232.97 89.78 233.13 87.61 238.72 87.02 245.72 87.02 245.72 81.43 256.97 81.51 256.97 76.92 276.4 76.92 276.56 86.69 281.15 86.52 283.4 77.59 287.65 77.25 287.73 42.37 304.07 41.7 318.08 43.37 318.24 57.05 336.25 59.39 344 54.13 356.76 61.31 356.76 68.57 359.76 68.91 359.76 73.67 373.18 73.67 373.26 80.18 375.76 80.34 375.6 109.14 386.1 109.14 385.93 75.33 416.44 74.67 418.36 67.66 421.03 67.57 420.95 69.16 429.95 69.08 429.87 67.41 431.7 67.32 434.7 74.17 437.54 74.17 437.54 83.77 439.62 83.93 439.87 120.32 442.79 120.32 442.54 80.84 446.04 80.84 445.95 75.33 458.63 75.33 458.71 79.84 463.04 82.1 463.13 106.8 469.05 106.72 469.96 109.31 470.05 115.23 472.38 115.4 472.38 120.49 481.05 121.33 481.3 135.6 504.14 135.26 503.89 92.53 515.73 92.36 515.73 70.41 524.82 69.24 525.32 66.82 529.9 66.74 529.9 64.48 536.65 64.48 536.74 66.49 538.9 66.57 539.65 69.41 541.99 69.41 541.99 71.66 547.24 71.75 547.16 61.9 558.99 61.9 559.08 70.49 567.66 73 567.66 80.01 576.92 81.76 576.92 74.92 606.93 74.92 606.84 76.42 614.85 76.5 615.26 108.97 648.27 108.39 648.19 109.64 650.61 109.64 650.61 114.4 652.19 114.4 652.36 118.32 654.44 118.32 654.53 140.19 673.37 140.02 672.78 116.98 676.12 117.07 676.2 114.98 674.37 114.98 674.2 109.56 679.2 109.39 679.2 103.55 679.87 103.63 680.03 109.39 686.37 109.39 686.37 103.46 687.2 103.55 687.2 109.39 690.46 109.56 690.62 115.57 688.29 115.57 688.29 117.07 692.71 117.07 692.79 143.78 694.87 143.78 694.79 112.06 695.54 111.31 695.62 106.39 740.72 106.22 740.89 111.73 741.64 112.31 742.06 133.43 745.56 133.43 745.47 136.43 751.98 136.52 751.98 142.19 764.4 141.19 770.4 142.94 781.07 143.28 781.49 145.37 788.15 145.37 788.15 136.1 802.89 136.27 802.89 247.61 0 247.44 0 140.11"/><polygon class="b" points="694.79 112.06 739.64 112.31 739.97 148.62 715.88 148.37 715.96 149.46 707.88 149.29 703.96 151.12 703.96 152.88 695.04 152.79 694.87 143.78 694.79 112.06"/><polygon class="c" points="672.81 118.08 691.21 118.07 691.21 139.86 673.37 140.02 672.81 118.08"/><polygon class="d" points="634.77 139.86 634.85 118.24 636.69 118.24 636.69 114.81 638.44 114.73 638.44 109.72 640.52 109.72 640.5 108.53 648.27 108.39 648.19 109.64 650.61 109.64 650.61 114.4 652.19 114.4 652.36 118.32 654.44 118.32 654.53 140.19 634.77 139.86"/><polygon class="d" points="574.42 134.35 573.92 86.94 578.13 83.43 577.96 78.51 601.42 78.59 601.26 82.76 596.26 86.1 595.92 125.17 593.26 127 593.26 132.18 588.59 133.68 588.42 137.85 579.42 137.85 579.46 134.39 574.42 134.35"/><polygon class="d" points="551.24 152.71 551.41 105.97 552.74 100.29 552.74 83.1 557.41 69.41 562.75 82.6 562.91 100.96 564.25 105.47 564.58 132.68 562.25 132.68 562.25 137.19 556.08 137.35 556.24 152.88 551.24 152.71"/><polygon class="d" points="538.9 70.41 538.9 97.7 540.9 97.79 541.07 102.88 543.4 102.96 543.24 74.83 541.4 74.75 541.15 70.33 538.9 70.41"/><polygon class="e" points="529.11 69.78 529.11 74.04 530.69 74.13 530.82 86.31 533.03 93.49 537.86 93.53 537.86 69.7 529.11 69.78"/><rect class="f" x="521.98" y="75.08" width="7.92" height="18.61"/><polygon class="d" points="446.04 80.84 456.71 80.43 460.54 83.1 460.04 162.73 442.37 162.56 442.79 120.32 442.54 80.84 446.04 80.84"/><rect class="f" x="412.19" y="83.26" width="22.67" height="80.63"/><rect class="f" x="328" y="69.41" width="19.17" height="68.28"/><polygon class="e" points="304.07 41.7 303.82 89.11 314.16 89.44 314.16 138.69 307.91 138.69 307.82 133.51 306.12 133.43 306.16 127.17 304.63 127.19 304.66 122.49 286.48 122.33 287.65 77.25 287.73 42.37 304.07 41.7"/><polygon class="d" points="227.21 134.51 226.71 115.4 227.05 91.36 232.97 89.78 238.97 89.69 254.56 90.28 254.64 134.76 238.88 134.01 227.21 134.51"/><polygon class="d" points="205.54 125.75 210.04 125.75 210.21 123.16 221.54 123.16 221.54 126.58 224.8 126.58 224.85 115.39 209.12 115.32 208.87 120.99 205.54 120.99 205.54 125.75"/><rect class="g" x="192.03" y="133.43" width="16.09" height="25.96"/><polygon class="d" points="169.19 154.8 169.03 133.18 189.12 133.34 189.28 159.3 186.12 159.47 181.7 158.39 176.95 156.3 173.11 155.05 170.53 154.88 169.19 154.8"/><polygon class="c" points="148.1 157.88 148.69 132.26 163.78 132.26 164.03 155.3 158.52 155.13 156.27 155.72 152.52 156.63 150.85 157.38 148.1 157.88"/><polygon class="b" points="121.76 145.95 121.87 133.92 122.43 133.93 123.26 58.47 126.35 58.49 126.51 64.65 141.93 64.48 142.1 58.56 142.18 56.97 145.77 56.95 145.19 146.7 121.76 145.95"/><polygon class="d" points="103.75 142.69 107.51 161.64 118.93 161.64 115.17 142.78 103.75 142.69"/><rect class="f" x="70.41" y="132.26" width="7.42" height="28.88"/><rect class="f" x="58.16" y="132.26" width="10.25" height="28.88"/><rect class="f" x="45.48" y="132.34" width="10.59" height="28.8"/><rect class="f" x="39.4" y="132.34" width="4.33" height="28.71"/><polygon class="a" points="1497.68 142.72 1468.2 142.43 1468.2 144.64 1462.16 144.64 1461.95 136.33 1455.24 136.29 1455.16 144.64 1451.57 144.6 1451.57 142.68 1432.94 142.8 1432.69 107.79 1409.48 107.83 1407.73 109.58 1407.77 140 1403.89 140 1397.18 142.93 1396.93 147.64 1391.39 147.89 1391.18 143.8 1390.1 142.34 1385.63 142.09 1385.51 144.39 1382.93 144.3 1381.8 54.7 1375.67 44.56 1327.41 45.06 1327.91 93.31 1324.11 93.43 1324.11 96.56 1317.36 96.56 1317.49 55.58 1315.57 51.15 1296.15 53.24 1295.86 59.33 1279.68 61.42 1278.72 19.14 1273.81 17.68 1273.43 1.36 1256.34 1.36 1256.22 18.48 1252.51 18.81 1252.01 61.8 1235.96 59.17 1219.29 62.92 1218.95 11.42 1212.83 4.87 1191.86 5.08 1190.82 111.63 1179.77 111.79 1179.82 116.63 1176.52 116.72 1176.52 122.6 1164.18 119.47 1164.23 110.92 1157.14 110.42 1157.27 55.49 1153.6 51.03 1152.31 51.07 1152.26 53.57 1145.76 53.45 1145.93 48.73 1140.22 46.44 1100.08 47.44 1100.12 129.78 1094.12 129.74 1094.12 130.7 1091.99 130.78 1091.95 88.84 1084.03 86.54 1068.07 86.75 1067.9 104.82 1056.73 104.82 1056.48 85.21 1055.81 84.71 1055.65 72.94 1054.9 72.69 1054.65 61 1053.81 60.75 1053.65 50.57 1052.06 47.81 1050.73 39.22 1046.81 37.21 1030.06 37.13 1028.22 38.47 1025.05 44.23 1024.72 47.73 1022.89 49.23 1020.47 114.76 1018.72 115.09 1018.72 116.76 1009.97 116.84 1009.8 62.09 986.71 56.08 986.37 44.06 984.87 42.89 984.62 22.61 982.87 22.02 982.71 16.1 971.78 14.43 948.69 15.26 948.44 21.77 946.11 21.86 946.19 42.64 944.03 42.56 943.94 72.61 941.02 72.69 941.11 89.55 937.69 89.63 937.69 88.3 930.77 88.13 930.86 101.99 928.69 104.91 927.02 104.99 925.1 102.57 920.1 102.74 920.02 106.83 917.6 108.66 918.02 140.38 914.35 140.55 914.77 50.15 908.6 44.81 894.18 44.48 893.51 43.73 873.09 44.06 872.84 45.48 864.92 45.56 856.08 49.07 855.16 122.6 840.57 122.19 840.41 125.27 837.24 125.27 837.57 81.45 834.9 80.62 834.82 75.78 832.15 74.69 807.98 76.61 807.98 80.53 803.98 80.37 803.31 143.55 792.72 143.64 792.72 140.72 784.89 138.54 784.89 143.13 781.8 143.22 781.89 70.44 772.22 66.43 750.46 70.35 749.13 126.36 736.21 128.69 736.04 145.22 694.79 145.89 694.79 247.21 1497.68 246.47 1497.68 142.72"/><polygon class="d" points="1251.96 109.52 1251.63 162.93 1254.13 163.27 1254.13 160.26 1258.63 160.26 1265.3 155.76 1265.14 109.18 1251.96 109.52"/><polygon class="d" points="1327.49 52.23 1344 52.23 1344.66 89.96 1353.5 89.79 1353.67 52.07 1370.17 52.57 1370.08 43.36 1375.67 43.3 1376.51 143.38 1354.83 145.72 1355.17 115.84 1350.83 115.84 1350.67 146.05 1317.32 145.38 1317.36 95.3 1324.11 95.3 1324.11 92.17 1327.91 92.05 1327.49 52.23"/><polygon class="d" points="1295.56 60.91 1295.86 58.08 1296.15 51.98 1315.57 49.9 1315.32 94.14 1305.9 93.72 1305.48 61.16 1295.56 60.91"/><polygon class="d" points="1251.46 99.48 1252.01 60.54 1252.51 17.55 1256.22 17.22 1256.34 0.11 1270.47 0.11 1270.81 16.84 1276.14 18.85 1275.97 62.92 1276.14 101.31 1251.46 99.48"/><polygon class="c" points="1218.95 75.29 1229.29 75.29 1228.96 147.91 1218.62 147.07 1218.95 75.29"/><polygon class="d" points="1212.83 3.61 1214.12 139.88 1208.12 139.88 1207.62 130.86 1198.95 130.53 1198.95 134.87 1195.61 134.87 1195.45 120.01 1192.78 120.01 1192.94 115.67 1190.94 115.34 1190.82 110.37 1191.86 3.82 1212.83 3.61"/><rect class="f" x="1183.61" y="121.85" width="3.67" height="31.3"/><rect class="f" x="1178.86" y="121.93" width="3.5" height="30.13"/><rect class="f" x="1174.02" y="121.93" width="3.67" height="25.04"/><polygon class="d" points="1103.25 68.93 1100.1 82.12 1100.08 46.18 1140.22 45.18 1140.26 82.78 1145.76 82.95 1145.76 146.05 1138.09 146.22 1137.93 151.23 1131.92 151.56 1131.59 146.22 1124.26 145.72 1124.26 141.21 1120.75 141.21 1120.25 83.45 1123.09 83.78 1122.92 71.93 1119.75 67.76 1103.25 68.93"/><polygon class="b" points="1067.9 103.57 1083.91 103.57 1084.03 85.29 1068.07 85.5 1067.9 103.57"/><polygon class="d" points="1023.22 137.37 1020.47 113.5 1022.89 47.98 1024.72 46.48 1038.72 45.39 1040.56 46.73 1040.39 57.58 1038.56 57.58 1038.89 70.1 1036.89 70.1 1036.72 81.95 1035.22 81.95 1034.82 137.37 1023.22 137.37"/><polygon class="d" points="988.33 107.98 988.21 72.6 986.8 72.49 986.71 54.82 992.88 60.91 992.88 82.45 990.54 82.62 990.38 108.49 988.33 107.98"/><polygon class="b" points="978.12 95.34 966.37 94.14 966.37 90.13 958.36 90.13 957.7 87.96 941.11 88.04 941.02 71.43 943.94 71.35 944.03 41.3 946.19 41.38 946.11 20.6 948.44 20.52 948.69 14.01 971.78 13.17 971.87 19.51 974.04 19.68 973.7 41.05 976.2 41.22 976.04 71.43 977.87 71.26 978.12 95.34"/><polygon class="d" points="854.83 158.07 855.16 121.35 856.08 47.81 904.18 46.39 903.35 141.04 896.84 140.88 896.84 137.54 868 137.71 868 141.54 862 142.21 862.16 158.24 854.83 158.07"/><polygon class="h" points="803.31 142.3 820.48 142.21 821.15 78.61 823.07 78.69 822.82 142.21 831.32 142.21 832.15 73.44 807.98 75.36 807.98 79.28 803.98 79.11 803.31 142.3"/><polygon class="d" points="749.13 125.1 771.3 125.85 772.22 65.17 750.46 69.09 749.13 125.1"/></svg>