<svg xmlns="http://www.w3.org/2000/svg" viewBox="0 0 465.85 479.2">
    <defs>
        <style>.a{stroke:white;stroke-width: 12px;fill: none;}</style>
    </defs>
    <g>
<!--    <g fill="none" stroke="white" stroke-width="4">-->
<!--        <path class="a" d="M457.58,325.1c9.8-12.5,14.5-25.9,13.9-39.7-.6-15.2-7.4-27.1-13-34.4,6.5-16.2,9-41.7-12.71-61.5-15.89-14.5-42.89-21-80.3-19.2a313.83,313.83,0,0,0-49.2,6.3h-.1c-5,.9-10.3,2-15.7,3.2-.4-6.4.7-22.3,12.5-58.1,14-42.6,13.2-75.2-2.6-97C293.77,1.8,267.27,0,259.47,0a25.11,25.11,0,0,0-19.3,8.8c-11.1,12.9-9.8,36.7-8.4,47.7-13.2,35.4-50.2,122.2-81.5,146.3a10.7,10.7,0,0,0-1.6,1.4,107.42,107.42,0,0,0-19.6,29.4,41.27,41.27,0,0,0-19.8-5h-61a41.63,41.63,0,0,0-41.6,41.6V432.7a41.63,41.63,0,0,0,41.6,41.6h61a41.51,41.51,0,0,0,24-7.6l23.5,2.8c3.6.5,67.6,8.6,133.3,7.3,11.9.9,23.1,1.4,33.5,1.4,17.9,0,33.5-1.4,46.5-4.2,30.6-6.5,51.5-19.5,62.1-38.6a61.21,61.21,0,0,0,6.8-38.3c19.9-18,23.4-37.9,22.7-51.9A67.58,67.58,0,0,0,457.58,325.1Z" transform="translate(-6.17 0.5)"/>-->
        <path class="a" d="M123.88,270.1V432.6a14.62,14.62,0,0,1-14.6,14.6h-61v.1a14.62,14.62,0,0,1-14.6-14.6V270.1a14.62,14.62,0,0,1,14.6-14.6h61A14.62,14.62,0,0,1,123.88,270.1Z" transform="translate(-6.17 0.5)"/>
<!--        <path class="b" d="M48.28,447.3a14.62,14.62,0,0,1-14.6-14.6V270.1a14.62,14.62,0,0,1,14.6-14.6h61a14.62,14.62,0,0,1,14.6,14.6V432.6a14.62,14.62,0,0,1-14.6,14.6h-61Z" transform="translate(-6.17 0.5)"/>-->
<!--        <path class="d" d="M444.48,286.4c.4,8.9-3.81,18-12.5,27a13.43,13.43,0,0,0-1.8,16.3,41.61,41.61,0,0,1,4.6,16.7c.7,13.1-5.6,24.7-18.8,34.6a13.63,13.63,0,0,0-4.6,15.4c0,.1,4.3,13.3-2.7,25.8-6.7,12-21.6,20.6-44.2,25.4-18.1,3.9-42.71,4.6-72.9,2.2h-1.4c-64.3,1.4-129.3-7-130-7.1h-.1L150,441.5a42.37,42.37,0,0,0,.9-8.8V270.1a42.3,42.3,0,0,0-1.9-12.4c1.8-6.7,6.8-21.6,18.6-34.3,44.9-35.6,88.8-155.7,90.7-160.9a12.66,12.66,0,0,0,.6-6.7c-1.7-11.2-1.1-24.9,1.3-29,5.3.1,19.6,1.6,28.2,13.5,10.2,14.1,9.8,39.3-1.2,72.7-16.8,50.9-18.2,77.7-4.9,89.5,6.6,5.9,15.4,6.2,21.8,3.9,6.1-1.4,11.9-2.6,17.4-3.5l1.29-.3c30.71-6.7,85.7-10.8,104.81,6.6,16.2,14.8,4.7,34.4,3.4,36.5a13.36,13.36,0,0,0,2.4,17.4C433.48,263.2,444,273.1,444.48,286.4Z" transform="translate(-6.17 0.5)"/>-->
        <path class="a" d="M432,313.4a13.43,13.43,0,0,0-1.8,16.3,41.61,41.61,0,0,1,4.6,16.7c.7,13.1-5.6,24.7-18.8,34.6a13.63,13.63,0,0,0-4.6,15.4c0,.1,4.3,13.3-2.7,25.8-6.7,12-21.6,20.6-44.2,25.4-18.1,3.9-42.71,4.6-72.9,2.2h-1.4c-64.3,1.4-129.3-7-130-7.1h-.1L150,441.5a42.37,42.37,0,0,0,.9-8.8V270.1a42.3,42.3,0,0,0-1.9-12.4c1.8-6.7,6.8-21.6,18.6-34.3,44.9-35.6,88.8-155.7,90.7-160.9a12.66,12.66,0,0,0,.6-6.7c-1.7-11.2-1.1-24.9,1.3-29,5.3.1,19.6,1.6,28.2,13.5,10.2,14.1,9.8,39.3-1.2,72.7-16.8,50.9-18.2,77.7-4.9,89.5,6.6,5.9,15.4,6.2,21.8,3.9,6.1-1.4,11.9-2.6,17.4-3.5l1.29-.3c30.71-6.7,85.7-10.8,104.81,6.6,16.2,14.8,4.7,34.4,3.4,36.5a13.36,13.36,0,0,0,2.4,17.4c.1.1,10.6,10,11.1,23.3C444.88,295.3,440.67,304.4,432,313.4Z" transform="translate(-6.17 0.5)"/>
    </g>
</svg>